<?xml version="1.0" encoding="utf-8"?>
<COLLADA xmlns="http://www.collada.org/2005/11/COLLADASchema" version="1.4.1">
  <asset>
    <contributor>
      <authoring_tool>Codex Teknofest pinger mesh generator</authoring_tool>
    </contributor><unit name="meter" meter="1" />
    <up_axis>Z_UP</up_axis>
  </asset><library_effects>
    <effect id="ral9005-effect">
      <profile_COMMON>
        <technique sid="common">
          <lambert>
            <emission>
              <color>0 0 0 1</color>
            </emission><diffuse>
              <color>0.012 0.012 0.013 1</color>
            </diffuse>
          </lambert>
        </technique>
      </profile_COMMON>
    </effect><effect id="ral1023-effect">
      <profile_COMMON>
        <technique sid="common">
          <lambert>
            <emission>
              <color>0 0 0 1</color>
            </emission><diffuse>
              <color>1.0 0.714 0.0 1</color>
            </diffuse>
          </lambert>
        </technique>
      </profile_COMMON>
    </effect>
  </library_effects><library_materials>
    <material id="ral9005" name="ral9005">
      <instance_effect url="#ral9005-effect" />
    </material><material id="ral1023" name="ral1023">
      <instance_effect url="#ral1023-effect" />
    </material>
  </library_materials><library_geometries>
    <geometry id="left-profile-mesh" name="left-profile-mesh">
      <mesh>
        <source id="left-profile-mesh-positions">
          <float_array id="left-profile-mesh-positions-array" count="24">-0.015 -0.53 0 0.015 -0.53 0 0.015 -0.5 0 -0.015 -0.5 0 -0.015 -0.53 1.49 0.015 -0.53 1.49 0.015 -0.5 1.49 -0.015 -0.5 1.49</float_array>
          <technique_common>
            <accessor source="#left-profile-mesh-positions-array" count="8" stride="3">
              <param name="X" type="float" />
              <param name="Y" type="float" />
              <param name="Z" type="float" />
            </accessor>
          </technique_common>
        </source><source id="left-profile-mesh-normals">
          <float_array id="left-profile-mesh-normals-array" count="36">0 0 -1 0 0 -1 0 0 1 0 0 1 0 -1 0 0 -1 0 1 0 0 1 0 0 0 1 0 0 1 -0 -1 0 0 -1 0 0</float_array>
          <technique_common>
            <accessor source="#left-profile-mesh-normals-array" count="12" stride="3">
              <param name="X" type="float" />
              <param name="Y" type="float" />
              <param name="Z" type="float" />
            </accessor>
          </technique_common>
        </source><vertices id="left-profile-mesh-vertices">
          <input semantic="POSITION" source="#left-profile-mesh-positions" />
        </vertices><triangles material="material" count="12">
          <input semantic="VERTEX" source="#left-profile-mesh-vertices" offset="0" />
          <input semantic="NORMAL" source="#left-profile-mesh-normals" offset="1" />
          <p>0 0 2 0 1 0 0 1 3 1 2 1 4 2 5 2 6 2 4 3 6 3 7 3 0 4 1 4 5 4 0 5 5 5 4 5 1 6 2 6 6 6 1 7 6 7 5 7 2 8 3 8 7 8 2 9 7 9 6 9 3 10 0 10 4 10 3 11 4 11 7 11</p>
        </triangles>
      </mesh>
    </geometry><geometry id="right-profile-mesh" name="right-profile-mesh">
      <mesh>
        <source id="right-profile-mesh-positions">
          <float_array id="right-profile-mesh-positions-array" count="24">-0.015 0.5 0 0.015 0.5 0 0.015 0.53 0 -0.015 0.53 0 -0.015 0.5 1.49 0.015 0.5 1.49 0.015 0.53 1.49 -0.015 0.53 1.49</float_array>
          <technique_common>
            <accessor source="#right-profile-mesh-positions-array" count="8" stride="3">
              <param name="X" type="float" />
              <param name="Y" type="float" />
              <param name="Z" type="float" />
            </accessor>
          </technique_common>
        </source><source id="right-profile-mesh-normals">
          <float_array id="right-profile-mesh-normals-array" count="36">0 0 -1 0 0 -1 0 0 1 0 0 1 0 -1 0 0 -1 0 1 0 0 1 0 0 0 1 0 0 1 -0 -1 0 0 -1 0 0</float_array>
          <technique_common>
            <accessor source="#right-profile-mesh-normals-array" count="12" stride="3">
              <param name="X" type="float" />
              <param name="Y" type="float" />
              <param name="Z" type="float" />
            </accessor>
          </technique_common>
        </source><vertices id="right-profile-mesh-vertices">
          <input semantic="POSITION" source="#right-profile-mesh-positions" />
        </vertices><triangles material="material" count="12">
          <input semantic="VERTEX" source="#right-profile-mesh-vertices" offset="0" />
          <input semantic="NORMAL" source="#right-profile-mesh-normals" offset="1" />
          <p>0 0 2 0 1 0 0 1 3 1 2 1 4 2 5 2 6 2 4 3 6 3 7 3 0 4 1 4 5 4 0 5 5 5 4 5 1 6 2 6 6 6 1 7 6 7 5 7 2 8 3 8 7 8 2 9 7 9 6 9 3 10 0 10 4 10 3 11 4 11 7 11</p>
        </triangles>
      </mesh>
    </geometry><geometry id="bottom-profile-mesh" name="bottom-profile-mesh">
      <mesh>
        <source id="bottom-profile-mesh-positions">
          <float_array id="bottom-profile-mesh-positions-array" count="24">-0.015 -0.53 0 0.015 -0.53 0 0.015 0.53 0 -0.015 0.53 0 -0.015 -0.53 0.03 0.015 -0.53 0.03 0.015 0.53 0.03 -0.015 0.53 0.03</float_array>
          <technique_common>
            <accessor source="#bottom-profile-mesh-positions-array" count="8" stride="3">
              <param name="X" type="float" />
              <param name="Y" type="float" />
              <param name="Z" type="float" />
            </accessor>
          </technique_common>
        </source><source id="bottom-profile-mesh-normals">
          <float_array id="bottom-profile-mesh-normals-array" count="36">0 0 -1 0 0 -1 0 0 1 0 0 1 0 -1 0 0 -1 0 1 0 0 1 0 0 0 1 0 0 1 -0 -1 0 0 -1 0 0</float_array>
          <technique_common>
            <accessor source="#bottom-profile-mesh-normals-array" count="12" stride="3">
              <param name="X" type="float" />
              <param name="Y" type="float" />
              <param name="Z" type="float" />
            </accessor>
          </technique_common>
        </source><vertices id="bottom-profile-mesh-vertices">
          <input semantic="POSITION" source="#bottom-profile-mesh-positions" />
        </vertices><triangles material="material" count="12">
          <input semantic="VERTEX" source="#bottom-profile-mesh-vertices" offset="0" />
          <input semantic="NORMAL" source="#bottom-profile-mesh-normals" offset="1" />
          <p>0 0 2 0 1 0 0 1 3 1 2 1 4 2 5 2 6 2 4 3 6 3 7 3 0 4 1 4 5 4 0 5 5 5 4 5 1 6 2 6 6 6 1 7 6 7 5 7 2 8 3 8 7 8 2 9 7 9 6 9 3 10 0 10 4 10 3 11 4 11 7 11</p>
        </triangles>
      </mesh>
    </geometry><geometry id="top-profile-mesh" name="top-profile-mesh">
      <mesh>
        <source id="top-profile-mesh-positions">
          <float_array id="top-profile-mesh-positions-array" count="24">-0.015 -0.53 1.46 0.015 -0.53 1.46 0.015 0.53 1.46 -0.015 0.53 1.46 -0.015 -0.53 1.49 0.015 -0.53 1.49 0.015 0.53 1.49 -0.015 0.53 1.49</float_array>
          <technique_common>
            <accessor source="#top-profile-mesh-positions-array" count="8" stride="3">
              <param name="X" type="float" />
              <param name="Y" type="float" />
              <param name="Z" type="float" />
            </accessor>
          </technique_common>
        </source><source id="top-profile-mesh-normals">
          <float_array id="top-profile-mesh-normals-array" count="36">0 0 -1 0 0 -1 0 0 1 0 0 1 0 -1 0 0 -1 0 1 0 0 1 0 0 0 1 0 0 1 -0 -1 0 0 -1 0 0</float_array>
          <technique_common>
            <accessor source="#top-profile-mesh-normals-array" count="12" stride="3">
              <param name="X" type="float" />
              <param name="Y" type="float" />
              <param name="Z" type="float" />
            </accessor>
          </technique_common>
        </source><vertices id="top-profile-mesh-vertices">
          <input semantic="POSITION" source="#top-profile-mesh-positions" />
        </vertices><triangles material="material" count="12">
          <input semantic="VERTEX" source="#top-profile-mesh-vertices" offset="0" />
          <input semantic="NORMAL" source="#top-profile-mesh-normals" offset="1" />
          <p>0 0 2 0 1 0 0 1 3 1 2 1 4 2 5 2 6 2 4 3 6 3 7 3 0 4 1 4 5 4 0 5 5 5 4 5 1 6 2 6 6 6 1 7 6 7 5 7 2 8 3 8 7 8 2 9 7 9 6 9 3 10 0 10 4 10 3 11 4 11 7 11</p>
        </triangles>
      </mesh>
    </geometry><geometry id="pinger-socket-mesh" name="pinger-socket-mesh">
      <mesh>
        <source id="pinger-socket-mesh-positions">
          <float_array id="pinger-socket-mesh-positions-array" count="198">0 0 1.49 0 0 1.59 0.0125 0 1.49 0.01225982 0.002438629 1.49 0.01154849 0.004783543 1.49 0.01039337 0.006944628 1.49 0.008838835 0.008838835 1.49 0.006944628 0.01039337 1.49 0.004783543 0.01154849 1.49 0.002438629 0.01225982 1.49 7.654042e-19 0.0125 1.49 -0.002438629 0.01225982 1.49 -0.004783543 0.01154849 1.49 -0.006944628 0.01039337 1.49 -0.008838835 0.008838835 1.49 -0.01039337 0.006944628 1.49 -0.01154849 0.004783543 1.49 -0.01225982 0.002438629 1.49 -0.0125 1.530808e-18 1.49 -0.01225982 -0.002438629 1.49 -0.01154849 -0.004783543 1.49 -0.01039337 -0.006944628 1.49 -0.008838835 -0.008838835 1.49 -0.006944628 -0.01039337 1.49 -0.004783543 -0.01154849 1.49 -0.002438629 -0.01225982 1.49 -2.296213e-18 -0.0125 1.49 0.002438629 -0.01225982 1.49 0.004783543 -0.01154849 1.49 0.006944628 -0.01039337 1.49 0.008838835 -0.008838835 1.49 0.01039337 -0.006944628 1.49 0.01154849 -0.004783543 1.49 0.01225982 -0.002438629 1.49 0.0125 0 1.59 0.01225982 0.002438629 1.59 0.01154849 0.004783543 1.59 0.01039337 0.006944628 1.59 0.008838835 0.008838835 1.59 0.006944628 0.01039337 1.59 0.004783543 0.01154849 1.59 0.002438629 0.01225982 1.59 7.654042e-19 0.0125 1.59 -0.002438629 0.01225982 1.59 -0.004783543 0.01154849 1.59 -0.006944628 0.01039337 1.59 -0.008838835 0.008838835 1.59 -0.01039337 0.006944628 1.59 -0.01154849 0.004783543 1.59 -0.01225982 0.002438629 1.59 -0.0125 1.530808e-18 1.59 -0.01225982 -0.002438629 1.59 -0.01154849 -0.004783543 1.59 -0.01039337 -0.006944628 1.59 -0.008838835 -0.008838835 1.59 -0.006944628 -0.01039337 1.59 -0.004783543 -0.01154849 1.59 -0.002438629 -0.01225982 1.59 -2.296213e-18 -0.0125 1.59 0.002438629 -0.01225982 1.59 0.004783543 -0.01154849 1.59 0.006944628 -0.01039337 1.59 0.008838835 -0.008838835 1.59 0.01039337 -0.006944628 1.59 0.01154849 -0.004783543 1.59 0.01225982 -0.002438629 1.59</float_array>
          <technique_common>
            <accessor source="#pinger-socket-mesh-positions-array" count="66" stride="3">
              <param name="X" type="float" />
              <param name="Y" type="float" />
              <param name="Z" type="float" />
            </accessor>
          </technique_common>
        </source><source id="pinger-socket-mesh-normals">
          <float_array id="pinger-socket-mesh-normals-array" count="384">0 0 -1 0 0 1 0.9951847 0.09801714 0 0.9951847 0.09801714 -0 0 0 -1 0 0 1 0.9569403 0.2902847 0 0.9569403 0.2902847 -0 0 0 -1 0 0 1 0.8819213 0.4713967 0 0.8819213 0.4713967 -0 0 0 -1 0 0 1 0.7730105 0.6343933 0 0.7730105 0.6343933 -0 0 0 -1 0 0 1 0.6343933 0.7730105 0 0.6343933 0.7730105 -0 0 0 -1 0 0 1 0.4713967 0.8819213 0 0.4713967 0.8819213 -0 0 0 -1 0 0 1 0.2902847 0.9569403 0 0.2902847 0.9569403 -0 0 0 -1 0 0 1 0.09801714 0.9951847 0 0.09801714 0.9951847 -0 0 0 -1 0 -0 1 -0.09801714 0.9951847 0 -0.09801714 0.9951847 0 0 0 -1 0 0 1 -0.2902847 0.9569403 0 -0.2902847 0.9569403 0 0 0 -1 0 0 1 -0.4713967 0.8819213 0 -0.4713967 0.8819213 0 0 0 -1 0 0 1 -0.6343933 0.7730105 0 -0.6343933 0.7730105 0 0 0 -1 0 0 1 -0.7730105 0.6343933 0 -0.7730105 0.6343933 0 0 0 -1 0 0 1 -0.8819213 0.4713967 0 -0.8819213 0.4713967 0 0 0 -1 0 0 1 -0.9569403 0.2902847 0 -0.9569403 0.2902847 0 0 0 -1 0 0 1 -0.9951847 0.09801714 0 -0.9951847 0.09801714 0 -0 0 -1 0 0 1 -0.9951847 -0.09801714 0 -0.9951847 -0.09801714 0 0 0 -1 0 0 1 -0.9569403 -0.2902847 0 -0.9569403 -0.2902847 0 0 0 -1 0 0 1 -0.8819213 -0.4713967 0 -0.8819213 -0.4713967 0 0 0 -1 0 0 1 -0.7730105 -0.6343933 0 -0.7730105 -0.6343933 0 0 0 -1 0 0 1 -0.6343933 -0.7730105 0 -0.6343933 -0.7730105 0 0 0 -1 0 0 1 -0.4713967 -0.8819213 0 -0.4713967 -0.8819213 0 0 0 -1 0 0 1 -0.2902847 -0.9569403 0 -0.2902847 -0.9569403 0 0 0 -1 0 0 1 -0.09801714 -0.9951847 0 -0.09801714 -0.9951847 0 0 -0 -1 0 0 1 0.09801714 -0.9951847 0 0.09801714 -0.9951847 0 0 0 -1 0 0 1 0.2902847 -0.9569403 0 0.2902847 -0.9569403 0 0 0 -1 0 0 1 0.4713967 -0.8819213 0 0.4713967 -0.8819213 0 0 0 -1 0 0 1 0.6343933 -0.7730105 0 0.6343933 -0.7730105 0 0 0 -1 0 0 1 0.7730105 -0.6343933 0 0.7730105 -0.6343933 0 0 0 -1 0 0 1 0.8819213 -0.4713967 0 0.8819213 -0.4713967 0 0 0 -1 0 0 1 0.9569403 -0.2902847 0 0.9569403 -0.2902847 0 0 0 -1 -0 0 1 0.9951847 -0.09801714 0 0.9951847 -0.09801714 0</float_array>
          <technique_common>
            <accessor source="#pinger-socket-mesh-normals-array" count="128" stride="3">
              <param name="X" type="float" />
              <param name="Y" type="float" />
              <param name="Z" type="float" />
            </accessor>
          </technique_common>
        </source><vertices id="pinger-socket-mesh-vertices">
          <input semantic="POSITION" source="#pinger-socket-mesh-positions" />
        </vertices><triangles material="material" count="128">
          <input semantic="VERTEX" source="#pinger-socket-mesh-vertices" offset="0" />
          <input semantic="NORMAL" source="#pinger-socket-mesh-normals" offset="1" />
          <p>0 0 3 0 2 0 1 1 34 1 35 1 2 2 3 2 35 2 2 3 35 3 34 3 0 4 4 4 3 4 1 5 35 5 36 5 3 6 4 6 36 6 3 7 36 7 35 7 0 8 5 8 4 8 1 9 36 9 37 9 4 10 5 10 37 10 4 11 37 11 36 11 0 12 6 12 5 12 1 13 37 13 38 13 5 14 6 14 38 14 5 15 38 15 37 15 0 16 7 16 6 16 1 17 38 17 39 17 6 18 7 18 39 18 6 19 39 19 38 19 0 20 8 20 7 20 1 21 39 21 40 21 7 22 8 22 40 22 7 23 40 23 39 23 0 24 9 24 8 24 1 25 40 25 41 25 8 26 9 26 41 26 8 27 41 27 40 27 0 28 10 28 9 28 1 29 41 29 42 29 9 30 10 30 42 30 9 31 42 31 41 31 0 32 11 32 10 32 1 33 42 33 43 33 10 34 11 34 43 34 10 35 43 35 42 35 0 36 12 36 11 36 1 37 43 37 44 37 11 38 12 38 44 38 11 39 44 39 43 39 0 40 13 40 12 40 1 41 44 41 45 41 12 42 13 42 45 42 12 43 45 43 44 43 0 44 14 44 13 44 1 45 45 45 46 45 13 46 14 46 46 46 13 47 46 47 45 47 0 48 15 48 14 48 1 49 46 49 47 49 14 50 15 50 47 50 14 51 47 51 46 51 0 52 16 52 15 52 1 53 47 53 48 53 15 54 16 54 48 54 15 55 48 55 47 55 0 56 17 56 16 56 1 57 48 57 49 57 16 58 17 58 49 58 16 59 49 59 48 59 0 60 18 60 17 60 1 61 49 61 50 61 17 62 18 62 50 62 17 63 50 63 49 63 0 64 19 64 18 64 1 65 50 65 51 65 18 66 19 66 51 66 18 67 51 67 50 67 0 68 20 68 19 68 1 69 51 69 52 69 19 70 20 70 52 70 19 71 52 71 51 71 0 72 21 72 20 72 1 73 52 73 53 73 20 74 21 74 53 74 20 75 53 75 52 75 0 76 22 76 21 76 1 77 53 77 54 77 21 78 22 78 54 78 21 79 54 79 53 79 0 80 23 80 22 80 1 81 54 81 55 81 22 82 23 82 55 82 22 83 55 83 54 83 0 84 24 84 23 84 1 85 55 85 56 85 23 86 24 86 56 86 23 87 56 87 55 87 0 88 25 88 24 88 1 89 56 89 57 89 24 90 25 90 57 90 24 91 57 91 56 91 0 92 26 92 25 92 1 93 57 93 58 93 25 94 26 94 58 94 25 95 58 95 57 95 0 96 27 96 26 96 1 97 58 97 59 97 26 98 27 98 59 98 26 99 59 99 58 99 0 100 28 100 27 100 1 101 59 101 60 101 27 102 28 102 60 102 27 103 60 103 59 103 0 104 29 104 28 104 1 105 60 105 61 105 28 106 29 106 61 106 28 107 61 107 60 107 0 108 30 108 29 108 1 109 61 109 62 109 29 110 30 110 62 110 29 111 62 111 61 111 0 112 31 112 30 112 1 113 62 113 63 113 30 114 31 114 63 114 30 115 63 115 62 115 0 116 32 116 31 116 1 117 63 117 64 117 31 118 32 118 64 118 31 119 64 119 63 119 0 120 33 120 32 120 1 121 64 121 65 121 32 122 33 122 65 122 32 123 65 123 64 123 0 124 2 124 33 124 1 125 65 125 34 125 33 126 2 126 34 126 33 127 34 127 65 127</p>
        </triangles>
      </mesh>
    </geometry>
  </library_geometries><library_visual_scenes>
    <visual_scene id="Scene" name="Scene">
      <node id="left-profile" name="left-profile" type="NODE">
        <matrix>1 0 0 0 0 1 0 0 0 0 1 0 0 0 0 1</matrix>
        <instance_geometry url="#left-profile-mesh">
          <bind_material>
            <technique_common>
              <instance_material symbol="material" target="#ral9005" />
            </technique_common>
          </bind_material>
        </instance_geometry>
      </node><node id="right-profile" name="right-profile" type="NODE">
        <matrix>1 0 0 0 0 1 0 0 0 0 1 0 0 0 0 1</matrix>
        <instance_geometry url="#right-profile-mesh">
          <bind_material>
            <technique_common>
              <instance_material symbol="material" target="#ral9005" />
            </technique_common>
          </bind_material>
        </instance_geometry>
      </node><node id="bottom-profile" name="bottom-profile" type="NODE">
        <matrix>1 0 0 0 0 1 0 0 0 0 1 0 0 0 0 1</matrix>
        <instance_geometry url="#bottom-profile-mesh">
          <bind_material>
            <technique_common>
              <instance_material symbol="material" target="#ral9005" />
            </technique_common>
          </bind_material>
        </instance_geometry>
      </node><node id="top-profile" name="top-profile" type="NODE">
        <matrix>1 0 0 0 0 1 0 0 0 0 1 0 0 0 0 1</matrix>
        <instance_geometry url="#top-profile-mesh">
          <bind_material>
            <technique_common>
              <instance_material symbol="material" target="#ral9005" />
            </technique_common>
          </bind_material>
        </instance_geometry>
      </node><node id="pinger-socket" name="pinger-socket" type="NODE">
        <matrix>1 0 0 0 0 1 0 0 0 0 1 0 0 0 0 1</matrix>
        <instance_geometry url="#pinger-socket-mesh">
          <bind_material>
            <technique_common>
              <instance_material symbol="material" target="#ral1023" />
            </technique_common>
          </bind_material>
        </instance_geometry>
      </node>
    </visual_scene>
  </library_visual_scenes><scene>
    <instance_visual_scene url="#Scene" />
  </scene>
</COLLADA>
