<COLLADA xmlns="http://www.collada.org/2005/11/COLLADASchema" version="1.4.1">
  <asset>
    <created>2026-08-14T00:32:49.845894</created>
    <modified>2026-08-14T00:32:49.845898</modified>
    <up_axis>Z_UP</up_axis>
  </asset>
  <library_effects>
    <effect id="c446a5d59bfa43c7b9f3bd4362130b0b" name="c446a5d59bfa43c7b9f3bd4362130b0b">
      <profile_COMMON>
        <technique sid="common">
          <phong>
            <emission>
              <color>0.0 0.0 0.0 1.0</color>
            </emission>
            <ambient>
              <color>0.0 0.0 0.0 1.0</color>
            </ambient>
            <diffuse>
              <color>0.0 0.0 0.0 1.0</color>
            </diffuse>
            <specular>
              <color>0.0 0.0 0.0 1.0</color>
            </specular>
            <shininess>
              <float>0.0</float>
            </shininess>
            <reflective>
              <color>0.0 0.0 0.0 1.0</color>
            </reflective>
            <reflectivity>
              <float>0.0</float>
            </reflectivity>
            <transparent>
              <color>0.0 0.0 0.0 1.0</color>
            </transparent>
            <transparency>
              <float>1.0</float>
            </transparency>
          </phong>
        </technique>
        <extra>
          <technique profile="GOOGLEEARTH">
            <double_sided>0</double_sided>
          </technique>
        </extra>
      </profile_COMMON>
    </effect>
  </library_effects>
  <library_geometries>
    <geometry id="f5a00a443c39467c91aeea7a3e44adc4" name="f63d36308ac947fdaa940bd34bedab70">
      <mesh>
        <source id="verts-array">
          <float_array count="276" id="verts-array-array">-0.08238907 0.03138754 0.2496981 -0.1695393 0.001682375 0.07823388 -0.156755 0.02382553 0.07823388 -0.1350043 0.03039547 0.1222207 -0.09402026 0.1013818 0.1222207 -0.09920588 0.1235035 0.07823388 -0.08622664 0.1459842 0.07823388 -0.06843541 0.05555599 0.2496981 -0.08238907 0.03138754 0.2496981 -0.09181596 0.09155795 0.1415132 -0.125258 0.03363471 0.1415132 -0.08239125 0.0475461 0.2268411 -0.09181596 0.09155795 0.1415132 0.06459233 0.06416123 0.246942 0.05790596 0.08158887 0.2386738 0.05627814 0.09384719 0.2253252 0.05988363 0.1003282 0.2073281 0.06518991 0.1011415 0.1931803 0.07145489 0.09800758 0.1822663 0.07857791 0.09100347 0.1747238 0.0864583 0.08020603 0.1706908 0.08012849 0.09518417 0.1650133 0.0770519 0.1073599 0.1553303 0.0772921 0.1162073 0.1422298 0.08093518 0.1212135 0.1262262 0.0892392 0.1212259 0.1058681 0.1000868 0.113143 0.09072805 0.1129924 0.09741579 0.08135742 0.1274932 0.07450837 0.07823388 0.1601362 0.01796907 0.07823388 0.1076362 -0.01234181 0.2496981 0.07620152 0.0421047 0.2496981 0.06459233 0.06416123 0.246942 0.1222578 0.07009049 0.09730587 0.1130309 0.08470119 0.09924431 0.1051895 0.09417093 0.1050596 0.09859251 0.09866585 0.114862 0.09313806 0.09828462 0.1287618 0.09005817 0.09373855 0.1427351 0.09067491 0.08579094 0.152464 0.09498053 0.0742798 0.1581966 0.1030288 0.05898862 0.1601075 0.1227705 0.02479501 0.1601075 0.1419995 0.03589687 0.09730587 0.1222578 0.07009049 0.09730587 0.1169984 0.0214625 0.178959 0.09877681 0.05302324 0.178959 0.09043637 0.06634547 0.1805483 0.0834223 0.07512272 0.1853163 0.07763468 0.07944358 0.1933824 0.07303509 0.07934212 0.2047925 0.07066994 0.07542248 0.2161292 0.0715181 0.06824983 0.2241953 0.07559551 0.0577771 0.2290184 0.08295705 0.0438897 0.2306261 0.1011787 0.01232896 0.2306261 0.1169984 0.0214625 0.178959 0.07068363 -0.09260481 0.233972 0.07068363 -0.1009323 0.2104182 0.05830507 -0.09768585 0.2196006 0.0451376 -0.09538482 0.2261089 0.03115302 -0.09400421 0.2300139 0.01632317 -0.09354401 0.2313155 -0.01020902 -0.09507489 0.2269855 -0.02969727 -0.09966754 0.2139956 -0.04167197 -0.107156 0.1928149 -0.04566354 -0.1173745 0.1639129 -0.04167197 -0.1275647 0.1350905 -0.02969727 -0.1350438 0.1139364 -0.01020902 -0.1396364 0.1009464 0.01632317 -0.1411673 0.09661643 0.03115302 -0.1407071 0.09791808 0.0451376 -0.1393265 0.101823 0.05830507 -0.1370161 0.1083579 0.07068363 -0.1337665 0.1175492 0.07068363 -0.1420314 0.0941725 0.05787305 -0.1444983 0.08719493 0.04431111 -0.146264 0.08220082 0.03001659 -0.1473159 0.07922561 0.01493316 -0.1476665 0.07823388 -0.02066224 -0.1456379 0.08397178 -0.0478049 -0.1395519 0.1011855 -0.06496395 -0.129944 0.1283609 -0.07068363 -0.1173745 0.1639129 -0.06496395 -0.1047799 0.1995357 -0.0478049 -0.09517194 0.226711 -0.02066224 -0.08907658 0.2439513 0.01493316 -0.08704479 0.2496981 0.03018565 -0.0873923 0.2487152 0.04453651 -0.0884348 0.2457666 0.0580421 -0.09017231 0.2408521 0.07068363 -0.09260481 0.233972</float_array>
          <technique_common>
            <accessor count="92" source="#verts-array-array" stride="3">
              <param type="float" name="X"/>
              <param type="float" name="Y"/>
              <param type="float" name="Z"/>
            </accessor>
          </technique_common>
        </source>
        <source id="normals-array">
          <float_array count="276" id="normals-array-array">0 0 0 -0.8164966 0.4714045 0.3333333 -0.8164966 0.4714045 0.3333333 -0.8164966 0.4714045 0.3333333 -0.8164966 0.4714045 0.3333333 -0.8164966 0.4714045 0.3333333 -0.8164966 0.4714045 0.3333333 -0.8164966 0.4714045 0.3333333 -0.8164966 0.4714045 0.3333333 0 0 0 -0.8164966 0.4714045 0.3333333 -0.8164966 0.4714045 0.3333333 -0.8164966 0.4714045 0.3333333 0 0 0 0.8164966 0.4714045 0.3333333 0.8164966 0.4714045 0.3333333 0.8164966 0.4714045 0.3333333 0.8164966 0.4714045 0.3333333 0.8164966 0.4714045 0.3333333 0.8164966 0.4714045 0.3333333 0.8164966 0.4714045 0.3333333 0.8164966 0.4714045 0.3333333 0.8164966 0.4714045 0.3333333 0.8164966 0.4714045 0.3333333 0.8164966 0.4714045 0.3333333 0.8164966 0.4714045 0.3333333 0.8164966 0.4714045 0.3333333 0.8164966 0.4714045 0.3333333 0.8164966 0.4714045 0.3333333 0.8164966 0.4714045 0.3333333 0.8164966 0.4714045 0.3333333 0.8164966 0.4714045 0.3333333 0.8164966 0.4714045 0.3333333 0 0 0 0.8164966 0.4714045 0.3333333 0.8164966 0.4714045 0.3333333 0.8164966 0.4714045 0.3333333 0.8164966 0.4714045 0.3333333 0.8164966 0.4714045 0.3333333 0.8164966 0.4714045 0.3333333 0.8164966 0.4714045 0.3333333 0.8164966 0.4714045 0.3333333 0.8164966 0.4714045 0.3333333 0.8164966 0.4714045 0.3333333 0.8164966 0.4714045 0.3333333 0 0 0 0.8164966 0.4714045 0.3333333 0.8164966 0.4714045 0.3333333 0.8164966 0.4714045 0.3333333 0.8164966 0.4714045 0.3333333 0.8164966 0.4714045 0.3333333 0.8164966 0.4714045 0.3333333 0.8164966 0.4714045 0.3333333 0.8164966 0.4714045 0.3333333 0.8164966 0.4714045 0.3333333 0.8164966 0.4714045 0.3333333 0.8164966 0.4714045 0.3333333 0 0 0 8.701729e-16 -0.942809 0.3333333 7.533416e-16 -0.942809 0.3333333 -3.806763e-16 -0.942809 0.3333333 -5.424575e-17 -0.942809 0.3333333 -1.410439e-16 -0.942809 0.3333333 2.458537e-16 -0.942809 0.3333333 8.36682e-16 -0.942809 0.3333333 2.237813e-17 -0.942809 0.3333333 -6.127557e-16 -0.942809 0.3333333 1.541269e-16 -0.942809 0.3333333 1.082425e-15 -0.942809 0.3333333 -8.548121e-15 -0.942809 0.3333333 5.363757e-16 -0.942809 0.3333333 -1.246087e-18 -0.942809 0.3333333 4.419796e-16 -0.942809 0.3333333 -3.374661e-15 -0.942809 0.3333333 -3.685915e-16 -0.942809 0.3333333 -4.266706e-17 -0.942809 0.3333333 1.880348e-16 -0.942809 0.3333333 -1.826753e-15 -0.942809 0.3333333 -7.556624e-18 -0.942809 0.3333333 -1.081403e-16 -0.942809 0.3333333 6.809823e-17 -0.942809 0.3333333 -1.040131e-15 -0.942809 0.3333333 1.016002e-16 -0.942809 0.3333333 1.255468e-16 -0.942809 0.3333333 4.349887e-17 -0.942809 0.3333333 5.784465e-16 -0.942809 0.3333333 2.433067e-16 -0.942809 0.3333333 9.767616e-17 -0.942809 0.3333333 5.571398e-17 -0.942809 0.3333333 2.601033e-17 -0.942809 0.3333333 1.466013e-17 -0.942809 0.3333333 8.582509e-17 -0.942809 0.3333333</float_array>
          <technique_common>
            <accessor count="92" source="#normals-array-array" stride="3">
              <param type="float" name="X"/>
              <param type="float" name="Y"/>
              <param type="float" name="Z"/>
            </accessor>
          </technique_common>
        </source>
        <vertices id="verts-array-vertices">
          <input semantic="POSITION" source="#verts-array"/>
        </vertices>
        <triangles count="86" material="material0">
          <input offset="0" semantic="VERTEX" source="#verts-array-vertices"/>
          <input offset="1" semantic="NORMAL" source="#normals-array"/>
          <p>6 6 12 12 11 11 6 6 5 5 4 4 3 3 2 2 1 1 7 7 6 6 11 11 12 12 6 6 4 4 3 3 1 1 8 8 8 8 7 7 11 11 10 10 12 12 4 4 3 3 8 8 11 11 10 10 4 4 3 3 3 3 11 11 10 10 29 29 56 56 55 55 29 29 43 43 42 42 44 44 43 43 29 29 29 29 28 28 27 27 27 27 26 26 25 25 25 25 24 24 23 23 23 23 22 22 21 21 20 20 19 19 18 18 18 18 17 17 16 16 16 16 15 15 14 14 14 14 32 32 31 31 30 30 29 29 55 55 56 56 29 29 42 42 34 34 44 44 29 29 29 29 27 27 25 25 25 25 23 23 21 21 20 20 18 18 16 16 16 16 14 14 31 31 31 31 30 30 55 55 46 46 56 56 42 42 34 34 29 29 25 25 25 25 21 21 20 20 31 31 55 55 54 54 47 47 46 46 42 42 35 35 34 34 25 25 31 31 54 54 53 53 47 47 42 42 41 41 36 36 35 35 25 25 31 31 53 53 52 52 48 48 47 47 41 41 37 37 36 36 25 25 16 16 31 31 52 52 48 48 41 41 40 40 38 38 37 37 25 25 16 16 52 52 51 51 49 49 48 48 40 40 38 38 25 25 20 20 16 16 51 51 50 50 39 39 38 38 20 20 20 20 16 16 50 50 40 40 39 39 20 20 20 20 50 50 49 49 49 49 40 40 20 20 58 58 91 91 90 90 90 90 89 89 88 88 88 88 87 87 86 86 86 86 85 85 84 84 84 84 83 83 82 82 82 82 81 81 80 80 80 80 79 79 78 78 78 78 77 77 76 76 76 76 75 75 74 74 59 59 58 58 90 90 90 90 88 88 86 86 82 82 80 80 78 78 78 78 76 76 74 74 60 60 59 59 90 90 78 78 74 74 73 73 61 61 60 60 90 90 78 78 73 73 72 72 62 62 61 61 90 90 78 78 72 72 71 71 63 63 62 62 90 90 78 78 71 71 70 70 63 63 90 90 86 86 78 78 70 70 69 69 64 64 63 63 86 86 82 82 78 78 69 69 65 65 64 64 86 86 82 82 69 69 68 68 65 65 86 86 84 84 82 82 68 68 67 67 66 66 65 65 84 84 84 84 82 82 67 67 67 67 66 66 84 84</p>
        </triangles>
      </mesh>
    </geometry>
  </library_geometries>
  <library_materials>
    <material id="b1d18d466c72401696b1cf65e604a360" name="defaultmaterial">
      <instance_effect url="#c446a5d59bfa43c7b9f3bd4362130b0b"/>
    </material>
  </library_materials>
  <library_visual_scenes>
    <visual_scene id="scene">
      <node id="node0" name="node0">
        <instance_geometry url="#f5a00a443c39467c91aeea7a3e44adc4">
          <bind_material>
            <technique_common>
              <instance_material symbol="material0" target="#b1d18d466c72401696b1cf65e604a360"/>
            </technique_common>
          </bind_material>
        </instance_geometry>
      </node>
    </visual_scene>
  </library_visual_scenes>
  <scene>
    <instance_visual_scene url="#scene"/>
  </scene>
</COLLADA>
